<svg width="948.7" height="84.9" viewBox="0 0 948.7 84.9" xmlns="http://www.w3.org/2000/svg"><g id="svgGroup" stroke-linecap="round" fill-rule="evenodd" font-size="9pt" stroke="#1cb5e0" stroke-width="0.25mm" fill="#1cb5e0" style="stroke:#1cb5e0;stroke-width:0.25mm;fill:#1cb5e0"><path d="M 864.785 34.498 A 4.533 4.533 0 0 0 862 33.5 Q 854.35 33.5 845.303 48.042 A 119.498 119.498 0 0 0 840.6 56.4 Q 841.36 52.477 841.638 49.354 A 37.891 37.891 0 0 0 841.8 46 Q 841.8 43.343 840.459 40.705 A 17.561 17.561 0 0 0 838.45 37.65 A 24.284 24.284 0 0 0 837.123 36.13 Q 834.611 33.5 832.7 33.5 A 7.84 7.84 0 0 0 829.797 34.072 Q 828.44 34.609 827.094 35.65 A 17.973 17.973 0 0 0 824.8 37.8 A 54.805 54.805 0 0 0 824.589 38.043 Q 822.556 40.395 819.8 44.1 A 21.396 21.396 0 0 0 819.213 44.938 Q 816.579 48.866 809.608 61.727 A 1237.948 1237.948 0 0 0 805.7 69 A 320.563 320.563 0 0 0 806.132 67.67 Q 812.3 48.508 812.3 40 Q 812.3 37.7 810.15 35.4 Q 808 33.1 805.8 33.1 A 1.009 1.009 0 0 0 805.379 33.189 Q 804.577 33.553 804.247 35.4 A 13.029 13.029 0 0 0 804.1 36.55 A 11510.679 11510.679 0 0 1 804.077 36.814 Q 803.776 40.279 803.15 47.45 Q 802.5 54.9 801.25 59.15 A 1536.62 1536.62 0 0 1 800.498 61.699 Q 799.703 64.385 799.05 66.55 A 580.293 580.293 0 0 0 798.632 67.942 Q 798.203 69.379 797.906 70.404 A 126.296 126.296 0 0 0 797.65 71.3 Q 797.2 72.9 796.8 74.6 Q 796.544 75.689 796.452 76.553 A 8.502 8.502 0 0 0 796.4 77.45 A 1.487 1.487 0 0 0 796.412 77.637 Q 796.522 78.506 797.621 79.919 A 18.582 18.582 0 0 0 798.4 80.85 A 19.071 19.071 0 0 0 798.459 80.917 Q 799.844 82.46 800.865 82.912 A 1.951 1.951 0 0 0 801.65 83.1 A 1.311 1.311 0 0 0 802.212 82.951 Q 803.443 82.356 805.6 79.4 Q 806.9 77.5 807.95 75.9 A 321.759 321.759 0 0 0 808.489 75.076 Q 809.445 73.609 810.9 71.35 A 32580.25 32580.25 0 0 1 811.426 70.535 Q 812.2 69.332 812.895 68.253 A 18668.912 18668.912 0 0 1 814.25 66.15 Q 815.7 63.9 818.55 59.25 A 1321.261 1321.261 0 0 1 818.653 59.083 Q 821.426 54.561 822.8 52.4 Q 824.2 50.2 826 47.75 A 39.977 39.977 0 0 1 826.591 46.966 Q 828.003 45.14 829 44.35 Q 829.619 43.86 830.212 43.623 A 2.916 2.916 0 0 1 831.3 43.4 A 1.731 1.731 0 0 1 832.27 43.707 Q 832.814 44.067 833.3 44.85 A 5.216 5.216 0 0 1 833.308 44.864 Q 833.836 45.72 834.052 46.801 A 8.183 8.183 0 0 1 834.2 48.4 A 48.874 48.874 0 0 1 834.186 49.587 Q 834.046 55.344 832.555 61.57 A 79.833 79.833 0 0 1 829 72.6 A 69.896 69.896 0 0 0 828.424 74.052 Q 827.2 77.246 827.2 78.4 A 3.063 3.063 0 0 0 827.445 79.565 Q 827.636 80.031 827.975 80.516 A 7.999 7.999 0 0 0 828.7 81.4 A 9.857 9.857 0 0 0 828.92 81.628 Q 830.292 83 831.45 83 A 1.262 1.262 0 0 0 831.568 82.995 Q 832.512 82.906 833.703 81.413 A 14.002 14.002 0 0 0 834.4 80.45 A 31.418 31.418 0 0 0 834.557 80.213 Q 835.664 78.52 836.998 76.022 A 109.891 109.891 0 0 0 838.35 73.4 A 523.503 523.503 0 0 1 838.633 72.835 Q 840.234 69.643 840.884 68.464 A 12.681 12.681 0 0 1 841.15 68 Q 841.7 67.1 842.15 66.3 A 38.829 38.829 0 0 1 842.236 66.149 Q 842.493 65.696 842.698 65.366 A 11.461 11.461 0 0 1 842.9 65.05 Q 843.2 64.6 846.9 58.4 A 184.587 184.587 0 0 1 847.932 56.692 Q 849.466 54.183 850.92 51.995 A 103.233 103.233 0 0 1 853.85 47.8 A 23.973 23.973 0 0 1 855.07 46.273 Q 856.573 44.553 857.9 43.863 A 3.688 3.688 0 0 1 859.6 43.4 A 1.19 1.19 0 0 1 860.53 43.858 Q 861.349 44.813 861.541 47.755 A 30.777 30.777 0 0 1 861.6 49.75 Q 861.6 56.1 858.15 66.85 Q 855.428 75.333 854.854 78.834 A 9.804 9.804 0 0 0 854.7 80.35 A 5.981 5.981 0 0 0 854.732 80.982 Q 854.89 82.469 855.845 82.912 A 2.25 2.25 0 0 0 856.8 83.1 Q 859.238 83.1 861.741 78.479 A 33.419 33.419 0 0 0 862.9 76.1 A 72.735 72.735 0 0 0 865.049 70.654 A 86.519 86.519 0 0 0 867.85 60.7 A 127.444 127.444 0 0 0 868.015 59.94 Q 869.7 52.061 869.7 47.05 A 22.271 22.271 0 0 0 869.631 45.278 A 18.221 18.221 0 0 0 867.35 37.65 A 13.56 13.56 0 0 0 866.19 35.904 Q 865.511 35.049 864.785 34.498 Z M 208.6 5.5 A 2.048 2.048 0 0 0 207.273 5.929 Q 206.2 6.793 206.2 9.4 Q 206.2 16.674 203.152 33.619 A 594.422 594.422 0 0 1 201 44.9 Q 200.005 50.336 196.841 62.865 A 1172.271 1172.271 0 0 1 194.7 71.2 A 95.113 95.113 0 0 0 194.542 71.829 Q 193.839 74.657 193.661 76.173 A 7.7 7.7 0 0 0 193.6 77.05 A 2.815 2.815 0 0 0 193.681 77.701 Q 193.902 78.63 194.725 79.769 A 13.876 13.876 0 0 0 195.6 80.85 Q 197.038 82.468 198.062 82.922 A 1.834 1.834 0 0 0 198.8 83.1 A 1.216 1.216 0 0 0 199.283 82.987 Q 200.427 82.488 202.3 79.8 Q 203.6 78.1 204.5 76.65 Q 205.4 75.2 207.25 72.2 A 604.894 604.894 0 0 1 207.87 71.198 Q 208.825 69.655 209.414 68.728 A 71.233 71.233 0 0 1 209.85 68.05 A 2975.84 2975.84 0 0 0 209.959 67.883 Q 210.66 66.808 212.983 63.244 A 190619.085 190619.085 0 0 0 214.25 61.3 Q 217.9 55.7 221.3 51.2 A 54.634 54.634 0 0 1 221.991 50.323 Q 224.248 47.518 225.9 46.3 Q 227.162 45.371 228.159 45.058 A 3.16 3.16 0 0 1 229.1 44.9 A 2.473 2.473 0 0 1 230.634 45.417 A 3.439 3.439 0 0 1 231.3 46.1 A 4.351 4.351 0 0 1 232.052 47.737 A 5.953 5.953 0 0 1 232.2 49.1 A 14.568 14.568 0 0 1 232.143 50.335 Q 231.769 54.704 228.965 63.702 A 242.581 242.581 0 0 1 226.9 70 A 113.263 113.263 0 0 0 226.739 70.482 Q 224.5 77.203 224.5 80.1 Q 224.5 82.283 225.665 82.878 A 2.251 2.251 0 0 0 226.7 83.1 A 2.734 2.734 0 0 0 227.164 83.06 Q 231.511 82.313 236.29 67.602 A 160.764 160.764 0 0 0 238.4 60.5 A 124.582 124.582 0 0 0 239.23 57.361 Q 240.9 50.678 240.9 47 A 11.768 11.768 0 0 0 240.867 46.121 Q 240.563 42.061 237.45 38 A 25.13 25.13 0 0 0 236.15 36.43 Q 234.551 34.663 233.153 33.962 A 3.914 3.914 0 0 0 231.4 33.5 A 7.389 7.389 0 0 0 228.467 34.171 Q 224.652 35.823 219.85 41.55 A 71.143 71.143 0 0 0 217.269 44.835 Q 211.269 52.915 203.1 67.7 Q 208.3 52.1 211.55 36.45 A 380.609 380.609 0 0 0 211.657 35.933 Q 214.8 20.692 214.8 14.3 A 7.526 7.526 0 0 0 214.714 13.171 Q 214.524 11.92 213.918 10.631 A 13.645 13.645 0 0 0 212.65 8.5 A 15.159 15.159 0 0 0 212.046 7.71 Q 210.231 5.5 208.6 5.5 Z M 754.237 39.434 A 1.223 1.223 0 0 0 754.5 38.9 Q 754.5 37.3 752.7 35.4 Q 751.909 34.565 751.089 34.097 A 4.267 4.267 0 0 0 748.95 33.5 A 1.197 1.197 0 0 0 748.565 33.575 Q 746.734 34.207 741.512 40.196 A 172.357 172.357 0 0 0 738.75 43.45 A 220.086 220.086 0 0 0 737.921 44.457 Q 729.937 54.202 719.2 69.5 A 255.689 255.689 0 0 0 720.728 64.961 A 284.912 284.912 0 0 0 727.8 39.1 A 244.485 244.485 0 0 0 728.889 34.02 Q 730.508 26.036 731.083 20.111 A 61.683 61.683 0 0 0 731.4 14.2 Q 731.4 12.407 730.497 10.551 A 13.177 13.177 0 0 0 729.2 8.45 A 21.776 21.776 0 0 0 729.07 8.277 Q 727.602 6.35 726.452 5.76 A 2.098 2.098 0 0 0 725.5 5.5 A 6.357 6.357 0 0 0 725.062 5.515 Q 723.931 5.593 723.55 6.1 A 1.53 1.53 0 0 0 723.365 6.434 Q 723.186 6.866 723.128 7.568 A 8.939 8.939 0 0 0 723.1 8.3 A 100.378 100.378 0 0 1 723.064 10.975 Q 722.907 16.852 722.072 23.439 A 178.593 178.593 0 0 1 719.85 36.7 A 523.934 523.934 0 0 1 718.327 43.904 Q 715.838 55.261 713.35 63.95 Q 710.709 73.175 710.214 75.926 A 5.889 5.889 0 0 0 710.1 76.85 A 3.121 3.121 0 0 0 710.161 77.448 Q 710.431 78.833 711.9 80.75 A 12.632 12.632 0 0 0 712.414 81.38 Q 713.917 83.1 715.2 83.1 A 1.674 1.674 0 0 0 715.704 83.015 Q 716.821 82.66 718.575 80.846 A 29.932 29.932 0 0 0 719.75 79.55 A 61.707 61.707 0 0 0 720.256 78.953 Q 723.338 75.273 729.6 66.8 A 12.699 12.699 0 0 0 729.901 67.608 A 16.258 16.258 0 0 0 730.4 68.7 A 14.919 14.919 0 0 0 730.507 69.123 Q 731.351 72.282 733.586 75.089 A 23.606 23.606 0 0 0 737.15 78.65 Q 740.727 81.571 743.657 82.575 A 8.943 8.943 0 0 0 746.55 83.1 A 11.658 11.658 0 0 0 746.899 83.095 Q 750.5 82.988 750.5 80.6 Q 750.5 79.6 748.35 78.1 A 78.917 78.917 0 0 0 746.681 76.968 A 95.936 95.936 0 0 0 743.65 75.05 A 12.063 12.063 0 0 1 743.449 74.925 Q 741.015 73.38 738.95 70.45 Q 736.8 67.4 736.8 63.8 Q 736.8 61.424 737.999 58.72 A 22.346 22.346 0 0 1 739.55 55.85 A 46.191 46.191 0 0 1 741.323 53.244 A 38.749 38.749 0 0 1 745.6 48.3 A 430.98 430.98 0 0 0 746.522 47.417 Q 753.052 41.144 754.237 39.434 Z M 451.85 41.45 A 111.771 111.771 0 0 0 449.613 44.503 Q 444.113 52.266 436.2 65.7 Q 438.4 58.9 440.05 51.05 Q 441.313 45.04 441.61 42.02 A 16.492 16.492 0 0 0 441.7 40.45 Q 441.7 37.7 439.5 35.4 A 10.952 10.952 0 0 0 438.649 34.597 Q 437.94 33.999 437.231 33.64 A 4.681 4.681 0 0 0 435.1 33.1 A 0.848 0.848 0 0 0 434.911 33.121 Q 433.58 33.425 433.148 38.107 A 45.411 45.411 0 0 0 433 40.4 A 110.36 110.36 0 0 1 432.993 40.74 Q 432.764 51.434 430.5 59.85 A 411.143 411.143 0 0 1 429.102 64.926 Q 428.422 67.329 427.781 69.464 A 199.192 199.192 0 0 1 426.3 74.2 Q 425.742 75.954 425.629 76.627 A 1.74 1.74 0 0 0 425.6 76.9 Q 425.6 78.136 426.603 79.661 A 12.507 12.507 0 0 0 427.5 80.85 Q 428.762 82.345 429.825 82.846 A 2.403 2.403 0 0 0 430.85 83.1 A 1.455 1.455 0 0 0 431.374 82.993 Q 432.42 82.589 433.9 80.658 A 26.116 26.116 0 0 0 434.8 79.4 Q 436.1 77.5 437.15 75.9 A 110.366 110.366 0 0 0 437.684 75.079 Q 438.316 74.097 439.147 72.769 A 406.486 406.486 0 0 0 440 71.4 Q 441.35 69.225 442.306 67.725 A 163.196 163.196 0 0 1 442.9 66.8 Q 444 65.1 446.1 61.8 A 2240.934 2240.934 0 0 0 447.03 60.339 Q 448.458 58.09 449.3 56.75 Q 450.4 55 452.05 52.5 Q 453.7 50 454.8 48.65 Q 455.9 47.3 457.15 45.9 A 15.074 15.074 0 0 1 457.153 45.897 Q 458.401 44.5 459.4 43.9 A 4.66 4.66 0 0 1 460.212 43.509 A 3.334 3.334 0 0 1 461.35 43.3 Q 462.077 43.3 462.805 44.18 A 6.07 6.07 0 0 1 463.25 44.8 A 4.064 4.064 0 0 1 463.442 45.139 Q 463.961 46.165 464.125 47.809 A 16.643 16.643 0 0 1 464.2 49.45 A 14.455 14.455 0 0 1 464.118 50.912 Q 463.811 53.914 462.35 58.85 Q 460.5 65.1 458.35 71.55 Q 456.2 78 456.2 80.1 Q 456.2 82.283 457.365 82.878 A 2.251 2.251 0 0 0 458.4 83.1 A 2.433 2.433 0 0 0 458.643 83.088 Q 462.484 82.703 467.083 70.18 A 135.85 135.85 0 0 0 469.2 63.9 A 93.51 93.51 0 0 0 470.766 58.42 Q 471.612 55.052 472.046 52.085 A 40.204 40.204 0 0 0 472.5 46.3 A 12.145 12.145 0 0 0 471.331 41.115 A 15.926 15.926 0 0 0 469.05 37.6 A 17.362 17.362 0 0 0 468.048 36.504 Q 466.936 35.392 465.785 34.692 A 7.669 7.669 0 0 0 461.75 33.5 Q 458.712 33.5 454.305 38.45 A 50.61 50.61 0 0 0 451.85 41.45 Z M 19.2 23.2 L 18.4 23.2 A 3.335 3.335 0 0 1 16.864 22.8 Q 15.865 22.285 14.837 21.11 A 12.205 12.205 0 0 1 14.7 20.95 Q 13.246 19.228 12.905 18.004 A 2.628 2.628 0 0 1 12.8 17.3 Q 12.8 15.6 17.05 14.35 Q 20.625 13.299 25.439 13.132 A 53.711 53.711 0 0 1 27.3 13.1 Q 40.931 13.1 48.495 16.703 A 23.502 23.502 0 0 1 48.9 16.9 A 17.323 17.323 0 0 1 52.659 19.381 A 10.902 10.902 0 0 1 56.5 27.9 Q 56.5 33.9 51.45 38.8 Q 46.4 43.7 36.7 46.7 L 37.6 46.8 A 35.891 35.891 0 0 1 43.713 47.664 Q 48.129 48.707 51.45 50.9 Q 54.808 53.118 56.097 55.754 A 7.748 7.748 0 0 1 56.9 59.2 A 12.342 12.342 0 0 1 55.229 65.281 Q 53.707 68.005 50.8 70.65 A 38.576 38.576 0 0 1 43.303 75.926 Q 39.547 77.98 35 79.55 Q 25.3 82.9 15.2 82.9 Q 9.3 82.9 4.65 79.6 Q 1.17 77.13 0.294 74.912 A 3.965 3.965 0 0 1 0 73.45 A 7.144 7.144 0 0 1 0.06 72.482 Q 0.319 70.6 1.7 70.6 A 0.794 0.794 0 0 1 1.946 70.67 Q 2.714 70.977 5.475 72.645 A 160.823 160.823 0 0 1 5.65 72.75 A 15.354 15.354 0 0 0 10.875 74.771 A 14.455 14.455 0 0 0 13.1 75 Q 11.7 74.3 10.45 72.4 A 9.069 9.069 0 0 1 9.713 71.061 Q 9.2 69.889 9.2 68.8 A 6.111 6.111 0 0 1 9.299 67.858 Q 9.681 65.555 11.537 59.506 A 262.274 262.274 0 0 1 11.6 59.3 Q 19 35.8 19.2 23.2 Z M 122.4 73.1 A 2.331 2.331 0 0 0 122.527 73.904 Q 122.903 74.929 124.389 74.996 A 4.731 4.731 0 0 0 124.6 75 A 17.148 17.148 0 0 0 127.613 74.711 Q 129.138 74.437 130.86 73.907 A 41.36 41.36 0 0 0 133.85 72.85 Q 139.26 70.716 139.891 70.701 A 0.366 0.366 0 0 1 139.9 70.7 A 2.45 2.45 0 0 1 140.623 70.798 Q 141.7 71.131 141.7 72.6 A 3.759 3.759 0 0 1 141.134 74.476 Q 139.918 76.58 136.093 79.079 A 39.407 39.407 0 0 1 135.75 79.3 A 31.004 31.004 0 0 1 131.964 81.385 Q 129.91 82.323 128.005 82.748 A 14.016 14.016 0 0 1 124.95 83.1 Q 120.1 83.1 116.9 80.45 A 12.58 12.58 0 0 1 115.353 78.948 Q 113.7 77.013 113.7 75 A 17.26 17.26 0 0 1 113.842 72.892 Q 114.113 70.705 114.9 67.85 Q 115.819 64.52 117.353 59.548 A 603.981 603.981 0 0 1 118.35 56.35 Q 120.488 49.557 121.768 44.975 A 188.558 188.558 0 0 0 121.9 44.5 Q 117.846 45.449 116.098 45.58 A 6.766 6.766 0 0 1 115.6 45.6 A 3.401 3.401 0 0 1 113.988 45.175 Q 113.479 44.904 112.976 44.461 A 7.712 7.712 0 0 1 112.45 43.95 A 7.923 7.923 0 0 1 111.669 42.987 Q 111.308 42.457 111.117 41.944 A 3.26 3.26 0 0 1 110.9 40.8 A 1.492 1.492 0 0 1 111.614 39.686 Q 113.947 37.885 123.9 36.2 A 89.713 89.713 0 0 0 125.099 29.535 Q 125.55 26.284 125.663 23.39 A 48.531 48.531 0 0 0 125.7 21.5 A 6.657 6.657 0 0 1 125.776 20.443 Q 126.076 18.59 127.555 18.504 A 2.525 2.525 0 0 1 127.7 18.5 Q 129.4 18.5 131.9 20.65 A 8.478 8.478 0 0 1 133.311 22.175 A 5.653 5.653 0 0 1 134.4 25.5 A 14.347 14.347 0 0 1 134.297 27.078 Q 133.996 29.746 132.815 34.537 A 145.239 145.239 0 0 1 132.7 35 A 188.239 188.239 0 0 1 135.406 34.782 Q 139.25 34.5 141.8 34.5 Q 147.8 34.5 147.8 37.1 A 1.526 1.526 0 0 1 147.348 38.15 Q 146.588 38.973 144.553 39.6 A 30.229 30.229 0 0 1 144.55 39.6 Q 141.3 40.6 130.9 42.7 A 333.282 333.282 0 0 1 128.852 50.044 Q 127.763 53.792 126.478 57.94 A 578.628 578.628 0 0 1 125.6 60.75 Q 122.4 70.9 122.4 73.1 Z M 505.4 73.1 A 2.331 2.331 0 0 0 505.527 73.904 Q 505.903 74.929 507.389 74.996 A 4.731 4.731 0 0 0 507.6 75 A 17.148 17.148 0 0 0 510.613 74.711 Q 512.138 74.437 513.86 73.907 A 41.36 41.36 0 0 0 516.85 72.85 Q 522.26 70.716 522.891 70.701 A 0.366 0.366 0 0 1 522.9 70.7 A 2.45 2.45 0 0 1 523.623 70.798 Q 524.7 71.131 524.7 72.6 A 3.759 3.759 0 0 1 524.134 74.476 Q 522.918 76.58 519.093 79.079 A 39.407 39.407 0 0 1 518.75 79.3 A 31.004 31.004 0 0 1 514.964 81.385 Q 512.91 82.323 511.005 82.748 A 14.016 14.016 0 0 1 507.95 83.1 Q 503.1 83.1 499.9 80.45 A 12.58 12.58 0 0 1 498.353 78.948 Q 496.7 77.013 496.7 75 A 17.26 17.26 0 0 1 496.842 72.892 Q 497.113 70.705 497.9 67.85 Q 498.819 64.52 500.353 59.548 A 603.981 603.981 0 0 1 501.35 56.35 Q 503.488 49.557 504.768 44.975 A 188.558 188.558 0 0 0 504.9 44.5 Q 500.846 45.449 499.098 45.58 A 6.766 6.766 0 0 1 498.6 45.6 A 3.401 3.401 0 0 1 496.988 45.175 Q 496.479 44.904 495.976 44.461 A 7.712 7.712 0 0 1 495.45 43.95 A 7.923 7.923 0 0 1 494.669 42.987 Q 494.308 42.457 494.117 41.944 A 3.26 3.26 0 0 1 493.9 40.8 A 1.492 1.492 0 0 1 494.614 39.686 Q 496.947 37.885 506.9 36.2 A 89.713 89.713 0 0 0 508.099 29.535 Q 508.55 26.284 508.663 23.39 A 48.531 48.531 0 0 0 508.7 21.5 A 6.657 6.657 0 0 1 508.776 20.443 Q 509.076 18.59 510.555 18.504 A 2.525 2.525 0 0 1 510.7 18.5 Q 512.4 18.5 514.9 20.65 A 8.478 8.478 0 0 1 516.311 22.175 A 5.653 5.653 0 0 1 517.4 25.5 A 14.347 14.347 0 0 1 517.297 27.078 Q 516.996 29.746 515.815 34.537 A 145.239 145.239 0 0 1 515.7 35 A 188.239 188.239 0 0 1 518.406 34.782 Q 522.25 34.5 524.8 34.5 Q 530.8 34.5 530.8 37.1 A 1.526 1.526 0 0 1 530.348 38.15 Q 529.588 38.973 527.553 39.6 A 30.229 30.229 0 0 1 527.55 39.6 Q 524.3 40.6 513.9 42.7 A 333.282 333.282 0 0 1 511.852 50.044 Q 510.763 53.792 509.478 57.94 A 578.628 578.628 0 0 1 508.6 60.75 Q 505.4 70.9 505.4 73.1 Z M 103.065 56.769 A 8.887 8.887 0 0 0 106.1 50.05 A 12.384 12.384 0 0 0 105.708 46.988 Q 105.171 44.877 103.898 42.727 A 25.156 25.156 0 0 0 101.25 39.1 A 24.442 24.442 0 0 0 101.146 38.981 Q 99.527 37.136 97.792 35.912 A 12.427 12.427 0 0 0 90.5 33.5 A 13.547 13.547 0 0 0 87.381 33.869 Q 84.962 34.44 82.527 35.893 A 26.42 26.42 0 0 0 78.6 38.8 Q 72.6 44.1 68.8 51.85 A 40.652 40.652 0 0 0 66.27 58.274 A 29.814 29.814 0 0 0 65 66.7 A 20.169 20.169 0 0 0 65.008 67.251 A 15.412 15.412 0 0 0 69.9 78.45 A 16.274 16.274 0 0 0 76.793 82.348 A 21.329 21.329 0 0 0 82.6 83.1 A 23.033 23.033 0 0 0 88.847 82.211 A 30.038 30.038 0 0 0 94.5 79.95 Q 98.697 77.783 100.006 75.829 A 3.108 3.108 0 0 0 100.6 74.1 Q 100.6 72.507 98.949 72.183 A 4.956 4.956 0 0 0 98 72.1 A 0.336 0.336 0 0 0 97.988 72.101 Q 97.508 72.118 93.488 73.44 A 324.416 324.416 0 0 0 92.25 73.85 A 36.785 36.785 0 0 1 89.321 74.696 A 30.668 30.668 0 0 1 82.05 75.6 A 24.442 24.442 0 0 1 81.437 75.593 Q 78.717 75.525 76.907 74.84 A 6.27 6.27 0 0 1 74.95 73.7 A 6.115 6.115 0 0 1 73.054 70.539 A 8.9 8.9 0 0 1 72.8 68.35 Q 72.8 66.302 73.294 63.919 A 34.134 34.134 0 0 1 74.2 60.5 A 43.889 43.889 0 0 0 80.028 61.649 A 56.777 56.777 0 0 0 87.35 62.1 A 30.087 30.087 0 0 0 89.36 62.034 A 24.808 24.808 0 0 0 100.35 58.75 A 15.115 15.115 0 0 0 103.065 56.769 Z M 913.765 56.769 A 8.887 8.887 0 0 0 916.8 50.05 A 12.384 12.384 0 0 0 916.408 46.988 Q 915.871 44.877 914.598 42.727 A 25.156 25.156 0 0 0 911.95 39.1 A 24.442 24.442 0 0 0 911.846 38.981 Q 910.227 37.136 908.492 35.912 A 12.427 12.427 0 0 0 901.2 33.5 A 13.547 13.547 0 0 0 898.081 33.869 Q 895.662 34.44 893.227 35.893 A 26.42 26.42 0 0 0 889.3 38.8 Q 883.3 44.1 879.5 51.85 A 40.652 40.652 0 0 0 876.97 58.274 A 29.814 29.814 0 0 0 875.7 66.7 A 20.169 20.169 0 0 0 875.708 67.251 A 15.412 15.412 0 0 0 880.6 78.45 A 16.274 16.274 0 0 0 887.493 82.348 A 21.329 21.329 0 0 0 893.3 83.1 A 23.033 23.033 0 0 0 899.547 82.211 A 30.038 30.038 0 0 0 905.2 79.95 Q 909.397 77.783 910.706 75.829 A 3.108 3.108 0 0 0 911.3 74.1 Q 911.3 72.507 909.649 72.183 A 4.956 4.956 0 0 0 908.7 72.1 A 0.336 0.336 0 0 0 908.688 72.101 Q 908.208 72.118 904.188 73.44 A 324.416 324.416 0 0 0 902.95 73.85 A 36.785 36.785 0 0 1 900.021 74.696 A 30.668 30.668 0 0 1 892.75 75.6 A 24.442 24.442 0 0 1 892.137 75.593 Q 889.417 75.525 887.607 74.84 A 6.27 6.27 0 0 1 885.65 73.7 A 6.115 6.115 0 0 1 883.754 70.539 A 8.9 8.9 0 0 1 883.5 68.35 Q 883.5 66.302 883.994 63.919 A 34.134 34.134 0 0 1 884.9 60.5 A 43.889 43.889 0 0 0 890.728 61.649 A 56.777 56.777 0 0 0 898.05 62.1 A 30.087 30.087 0 0 0 900.06 62.034 A 24.808 24.808 0 0 0 911.05 58.75 A 15.115 15.115 0 0 0 913.765 56.769 Z M 157.862 80.647 A 15.113 15.113 0 0 0 166.05 83.1 A 19.05 19.05 0 0 0 168.647 82.918 Q 171.176 82.57 173.895 81.559 A 36.645 36.645 0 0 0 178.85 79.25 Q 183.764 76.528 185.204 74.281 A 3.319 3.319 0 0 0 185.8 72.5 A 2.799 2.799 0 0 0 185.719 71.797 Q 185.495 70.936 184.652 70.695 A 2.735 2.735 0 0 0 183.9 70.6 A 3.009 3.009 0 0 0 183.385 70.649 Q 182.693 70.77 181.744 71.191 A 16 16 0 0 0 180.8 71.65 A 13.904 13.904 0 0 1 180.614 71.746 Q 178.634 72.748 175.15 73.75 A 25.683 25.683 0 0 1 172.038 74.435 A 31.445 31.445 0 0 1 167.15 74.8 Q 162.8 74.8 160.85 73 A 5.81 5.81 0 0 1 159.169 70.222 A 7.944 7.944 0 0 1 158.9 68.1 A 14.495 14.495 0 0 1 158.93 67.168 Q 159.236 62.424 162.62 56.654 A 52.842 52.842 0 0 1 166.1 51.5 A 52.63 52.63 0 0 1 168.93 48.056 Q 172.199 44.43 175.056 42.975 A 8.046 8.046 0 0 1 178.7 42 A 4.87 4.87 0 0 1 180.212 42.259 Q 181.51 42.683 183 43.8 Q 185.4 45.6 186.35 45.6 A 3.175 3.175 0 0 0 186.438 45.599 Q 186.743 45.591 186.999 45.523 A 1.609 1.609 0 0 0 187.8 45.05 A 1.868 1.868 0 0 0 188.183 44.417 A 2.118 2.118 0 0 0 188.3 43.7 A 5.317 5.317 0 0 0 188.272 43.162 Q 188.087 41.339 186.664 39.157 A 20.528 20.528 0 0 0 185.2 37.2 A 12.713 12.713 0 0 0 183.686 35.664 A 8.574 8.574 0 0 0 178 33.5 A 14.479 14.479 0 0 0 174.22 34.014 Q 169.722 35.226 165.05 39.3 Q 158.4 45.1 154.2 53.3 A 51.527 51.527 0 0 0 152.413 57.155 Q 150 63.013 150 67.75 A 13.396 13.396 0 0 0 151.798 74.573 A 16.248 16.248 0 0 0 155.1 78.55 A 20.921 20.921 0 0 0 157.862 80.647 Z M 342.962 80.647 A 15.113 15.113 0 0 0 351.15 83.1 A 19.05 19.05 0 0 0 353.747 82.918 Q 356.276 82.57 358.995 81.559 A 36.645 36.645 0 0 0 363.95 79.25 Q 368.864 76.528 370.304 74.281 A 3.319 3.319 0 0 0 370.9 72.5 A 2.799 2.799 0 0 0 370.819 71.797 Q 370.595 70.936 369.752 70.695 A 2.735 2.735 0 0 0 369 70.6 A 3.009 3.009 0 0 0 368.485 70.649 Q 367.793 70.77 366.844 71.191 A 16 16 0 0 0 365.9 71.65 A 13.904 13.904 0 0 1 365.714 71.746 Q 363.734 72.748 360.25 73.75 A 25.683 25.683 0 0 1 357.138 74.435 A 31.445 31.445 0 0 1 352.25 74.8 Q 347.9 74.8 345.95 73 A 5.81 5.81 0 0 1 344.269 70.222 A 7.944 7.944 0 0 1 344 68.1 A 14.495 14.495 0 0 1 344.03 67.168 Q 344.336 62.424 347.72 56.654 A 52.842 52.842 0 0 1 351.2 51.5 A 52.63 52.63 0 0 1 354.03 48.056 Q 357.299 44.43 360.156 42.975 A 8.046 8.046 0 0 1 363.8 42 A 4.87 4.87 0 0 1 365.312 42.259 Q 366.61 42.683 368.1 43.8 Q 370.5 45.6 371.45 45.6 A 3.175 3.175 0 0 0 371.538 45.599 Q 371.843 45.591 372.099 45.523 A 1.609 1.609 0 0 0 372.9 45.05 A 1.868 1.868 0 0 0 373.283 44.417 A 2.118 2.118 0 0 0 373.4 43.7 A 5.317 5.317 0 0 0 373.372 43.162 Q 373.187 41.339 371.764 39.157 A 20.528 20.528 0 0 0 370.3 37.2 A 12.713 12.713 0 0 0 368.786 35.664 A 8.574 8.574 0 0 0 363.1 33.5 A 14.479 14.479 0 0 0 359.32 34.014 Q 354.822 35.226 350.15 39.3 Q 343.5 45.1 339.3 53.3 A 51.527 51.527 0 0 0 337.513 57.155 Q 335.1 63.013 335.1 67.75 A 13.396 13.396 0 0 0 336.898 74.573 A 16.248 16.248 0 0 0 340.2 78.55 A 20.921 20.921 0 0 0 342.962 80.647 Z M 580.962 80.647 A 15.113 15.113 0 0 0 589.15 83.1 A 19.05 19.05 0 0 0 591.747 82.918 Q 594.276 82.57 596.995 81.559 A 36.645 36.645 0 0 0 601.95 79.25 Q 606.864 76.528 608.304 74.281 A 3.319 3.319 0 0 0 608.9 72.5 A 2.799 2.799 0 0 0 608.819 71.797 Q 608.595 70.936 607.752 70.695 A 2.735 2.735 0 0 0 607 70.6 A 3.009 3.009 0 0 0 606.485 70.649 Q 605.793 70.77 604.844 71.191 A 16 16 0 0 0 603.9 71.65 A 13.904 13.904 0 0 1 603.714 71.746 Q 601.734 72.748 598.25 73.75 A 25.683 25.683 0 0 1 595.138 74.435 A 31.445 31.445 0 0 1 590.25 74.8 Q 585.9 74.8 583.95 73 A 5.81 5.81 0 0 1 582.269 70.222 A 7.944 7.944 0 0 1 582 68.1 A 14.495 14.495 0 0 1 582.03 67.168 Q 582.336 62.424 585.72 56.654 A 52.842 52.842 0 0 1 589.2 51.5 A 52.63 52.63 0 0 1 592.03 48.056 Q 595.299 44.43 598.156 42.975 A 8.046 8.046 0 0 1 601.8 42 A 4.87 4.87 0 0 1 603.312 42.259 Q 604.61 42.683 606.1 43.8 Q 608.5 45.6 609.45 45.6 A 3.175 3.175 0 0 0 609.538 45.599 Q 609.843 45.591 610.099 45.523 A 1.609 1.609 0 0 0 610.9 45.05 A 1.868 1.868 0 0 0 611.283 44.417 A 2.118 2.118 0 0 0 611.4 43.7 A 5.317 5.317 0 0 0 611.372 43.162 Q 611.187 41.339 609.764 39.157 A 20.528 20.528 0 0 0 608.3 37.2 A 12.713 12.713 0 0 0 606.786 35.664 A 8.574 8.574 0 0 0 601.1 33.5 A 14.479 14.479 0 0 0 597.32 34.014 Q 592.822 35.226 588.15 39.3 Q 581.5 45.1 577.3 53.3 A 51.527 51.527 0 0 0 575.513 57.155 Q 573.1 63.013 573.1 67.75 A 13.396 13.396 0 0 0 574.898 74.573 A 16.248 16.248 0 0 0 578.2 78.55 A 20.921 20.921 0 0 0 580.962 80.647 Z M 673.762 80.647 A 15.113 15.113 0 0 0 681.95 83.1 A 19.05 19.05 0 0 0 684.547 82.918 Q 687.076 82.57 689.795 81.559 A 36.645 36.645 0 0 0 694.75 79.25 Q 699.664 76.528 701.104 74.281 A 3.319 3.319 0 0 0 701.7 72.5 A 2.799 2.799 0 0 0 701.619 71.797 Q 701.395 70.936 700.552 70.695 A 2.735 2.735 0 0 0 699.8 70.6 A 3.009 3.009 0 0 0 699.285 70.649 Q 698.593 70.77 697.644 71.191 A 16 16 0 0 0 696.7 71.65 A 13.904 13.904 0 0 1 696.514 71.746 Q 694.534 72.748 691.05 73.75 A 25.683 25.683 0 0 1 687.938 74.435 A 31.445 31.445 0 0 1 683.05 74.8 Q 678.7 74.8 676.75 73 A 5.81 5.81 0 0 1 675.069 70.222 A 7.944 7.944 0 0 1 674.8 68.1 A 14.495 14.495 0 0 1 674.83 67.168 Q 675.136 62.424 678.52 56.654 A 52.842 52.842 0 0 1 682 51.5 A 52.63 52.63 0 0 1 684.83 48.056 Q 688.099 44.43 690.956 42.975 A 8.046 8.046 0 0 1 694.6 42 A 4.87 4.87 0 0 1 696.112 42.259 Q 697.41 42.683 698.9 43.8 Q 701.3 45.6 702.25 45.6 A 3.175 3.175 0 0 0 702.338 45.599 Q 702.643 45.591 702.899 45.523 A 1.609 1.609 0 0 0 703.7 45.05 A 1.868 1.868 0 0 0 704.083 44.417 A 2.118 2.118 0 0 0 704.2 43.7 A 5.317 5.317 0 0 0 704.172 43.162 Q 703.987 41.339 702.564 39.157 A 20.528 20.528 0 0 0 701.1 37.2 A 12.713 12.713 0 0 0 699.586 35.664 A 8.574 8.574 0 0 0 693.9 33.5 A 14.479 14.479 0 0 0 690.12 34.014 Q 685.622 35.226 680.95 39.3 Q 674.3 45.1 670.1 53.3 A 51.527 51.527 0 0 0 668.313 57.155 Q 665.9 63.013 665.9 67.75 A 13.396 13.396 0 0 0 667.698 74.573 A 16.248 16.248 0 0 0 671 78.55 A 20.921 20.921 0 0 0 673.762 80.647 Z M 636.32 27.796 A 121.2 121.2 0 0 0 637.2 13.9 A 6.277 6.277 0 0 0 636.994 12.32 Q 636.719 11.262 636.081 10.183 A 12.89 12.89 0 0 0 634.75 8.35 A 25.99 25.99 0 0 0 634.353 7.899 Q 632.816 6.192 631.769 5.7 A 1.833 1.833 0 0 0 631 5.5 A 5.098 5.098 0 0 0 630.761 5.506 Q 630.146 5.535 629.762 5.718 A 1.112 1.112 0 0 0 629.3 6.1 A 1.621 1.621 0 0 0 629.159 6.365 Q 628.9 6.974 628.9 8.1 Q 628.9 15.469 627.983 23.866 A 207.668 207.668 0 0 1 626 37.55 Q 623.1 53.9 620.2 65.1 A 720.542 720.542 0 0 0 619.394 68.239 Q 617.743 74.738 617.394 76.746 A 5.182 5.182 0 0 0 617.3 77.5 Q 617.3 78.438 618.429 79.986 A 16.97 16.97 0 0 0 619.15 80.9 A 12.942 12.942 0 0 0 619.753 81.571 Q 620.651 82.499 621.433 82.864 A 2.29 2.29 0 0 0 622.4 83.1 Q 624.4 83.1 629.4 62.7 Q 634.58 42.779 636.32 27.796 Z M 279.761 35.147 A 9.117 9.117 0 0 0 274.6 33.5 A 13.054 13.054 0 0 0 269.419 34.644 Q 267.386 35.519 265.274 37.065 A 35.087 35.087 0 0 0 261.4 40.4 Q 254.4 47.3 250 56.15 Q 247.113 61.958 246.12 66.539 A 21.15 21.15 0 0 0 245.6 71 Q 245.6 75.2 250.05 79.15 Q 251.945 80.832 253.867 81.798 A 11.551 11.551 0 0 0 259.1 83.1 A 11.176 11.176 0 0 0 262.243 82.634 Q 266.604 81.36 271.365 76.611 A 53.895 53.895 0 0 0 275.6 71.8 A 42.072 42.072 0 0 0 275.781 74.396 Q 276.115 77.662 276.95 79.95 Q 277.593 81.71 278.438 82.487 A 2.119 2.119 0 0 0 279.9 83.1 Q 281.021 83.1 281.501 81.497 A 6.996 6.996 0 0 0 281.7 80.6 Q 282 79.4 282.2 78.15 Q 282.4 76.9 282.65 74.8 A 35.725 35.725 0 0 1 282.775 73.874 Q 283.129 71.455 284.15 65.9 A 185.955 185.955 0 0 0 284.191 65.676 Q 285.4 59.054 285.4 56.3 Q 285.4 55.501 284.767 54.491 A 8.513 8.513 0 0 0 284.2 53.7 A 20.362 20.362 0 0 0 284.33 53.5 Q 285.293 51.999 285.865 50.521 A 11.777 11.777 0 0 0 286.7 46.25 A 7.089 7.089 0 0 0 286.697 46.039 Q 286.621 43.503 284.737 40.539 A 23.958 23.958 0 0 0 282.9 38.05 Q 281.386 36.238 279.761 35.147 Z M 411.261 35.147 A 9.117 9.117 0 0 0 406.1 33.5 A 13.054 13.054 0 0 0 400.919 34.644 Q 398.886 35.519 396.774 37.065 A 35.087 35.087 0 0 0 392.9 40.4 Q 385.9 47.3 381.5 56.15 Q 378.613 61.958 377.62 66.539 A 21.15 21.15 0 0 0 377.1 71 Q 377.1 75.2 381.55 79.15 Q 383.445 80.832 385.367 81.798 A 11.551 11.551 0 0 0 390.6 83.1 A 11.176 11.176 0 0 0 393.743 82.634 Q 398.104 81.36 402.865 76.611 A 53.895 53.895 0 0 0 407.1 71.8 A 42.072 42.072 0 0 0 407.281 74.396 Q 407.615 77.662 408.45 79.95 Q 409.093 81.71 409.938 82.487 A 2.119 2.119 0 0 0 411.4 83.1 Q 412.521 83.1 413.001 81.497 A 6.996 6.996 0 0 0 413.2 80.6 Q 413.5 79.4 413.7 78.15 Q 413.9 76.9 414.15 74.8 A 35.725 35.725 0 0 1 414.275 73.874 Q 414.629 71.455 415.65 65.9 A 185.955 185.955 0 0 0 415.691 65.676 Q 416.9 59.054 416.9 56.3 Q 416.9 55.501 416.267 54.491 A 8.513 8.513 0 0 0 415.7 53.7 A 20.362 20.362 0 0 0 415.83 53.5 Q 416.793 51.999 417.365 50.521 A 11.777 11.777 0 0 0 418.2 46.25 A 7.089 7.089 0 0 0 418.197 46.039 Q 418.121 43.503 416.237 40.539 A 23.958 23.958 0 0 0 414.4 38.05 Q 412.886 36.238 411.261 35.147 Z M 945.4 6 A 24.752 24.752 0 0 0 944.18 5.164 Q 941.734 3.6 940.2 3.6 A 1.365 1.365 0 0 0 939.315 3.886 Q 938.801 4.301 938.656 5.317 A 6.32 6.32 0 0 0 938.6 6.2 Q 938.6 18.3 937.1 30.25 A 477.542 477.542 0 0 1 936.405 35.558 Q 935.284 43.747 934.25 48.8 Q 932.964 55.087 932.994 55.93 A 0.559 0.559 0 0 0 933 56 A 4.734 4.734 0 0 0 933.52 58.138 A 6.58 6.58 0 0 0 934.4 59.45 A 7.06 7.06 0 0 0 934.703 59.786 Q 935.972 61.1 937.4 61.1 A 1.318 1.318 0 0 0 938.337 60.479 Q 940.742 57.452 944.35 39.7 A 545.526 545.526 0 0 0 944.644 38.243 Q 947.666 23.165 948.437 14.765 A 55.427 55.427 0 0 0 948.7 9.8 Q 948.7 8.685 946.605 6.934 A 22.817 22.817 0 0 0 945.4 6 Z M 656.122 34.058 A 3.383 3.383 0 0 0 654.3 33.5 A 1.143 1.143 0 0 0 653.586 33.783 Q 652.464 34.676 651.4 38.4 Q 650.7 41 650.15 43.55 Q 649.6 46.1 648.7 50.25 Q 648.243 52.358 647.799 54.246 A 169.143 169.143 0 0 1 646.95 57.7 Q 646.1 61 644.65 66.25 A 442.878 442.878 0 0 0 644.009 68.596 Q 643.024 72.239 642.45 74.65 A 50.497 50.497 0 0 0 642.132 76.07 Q 641.851 77.422 641.753 78.36 A 8.665 8.665 0 0 0 641.7 79.25 Q 641.7 80.7 642.7 81.85 A 4.164 4.164 0 0 0 642.891 82.056 A 3.017 3.017 0 0 0 645.1 83 A 2.73 2.73 0 0 0 646.719 82.455 Q 647.794 81.685 648.672 79.825 A 17.38 17.38 0 0 0 649.4 78 A 654.496 654.496 0 0 0 649.978 76.206 Q 651.977 69.966 653.652 64.298 A 397.021 397.021 0 0 0 656.7 53.45 Q 659.056 44.554 659.498 41.433 A 8.584 8.584 0 0 0 659.6 40.3 A 5.813 5.813 0 0 0 659.545 39.504 Q 659.294 37.686 657.9 35.8 A 8.838 8.838 0 0 0 657.176 34.935 Q 656.658 34.394 656.122 34.058 Z M 48.2 58.8 A 2.926 2.926 0 0 0 47.322 56.788 Q 45.799 55.146 41.635 53.866 A 35.152 35.152 0 0 0 41.25 53.75 Q 34.3 51.7 27.4 51.7 Q 24.7 51.7 22.7 48.9 A 767.784 767.784 0 0 1 21.241 54.58 Q 16.371 73.219 14.706 74.995 A 1.277 1.277 0 0 1 14.7 75 A 53.024 53.024 0 0 0 23.849 73.911 A 65.514 65.514 0 0 0 29.6 72.45 A 54.336 54.336 0 0 0 36.385 69.929 A 39.437 39.437 0 0 0 42.8 66.3 Q 47.256 63.165 48.035 60.097 A 5.251 5.251 0 0 0 48.2 58.8 Z M 279.2 51.2 L 279.2 51.1 A 35.718 35.718 0 0 0 279.091 48.178 Q 278.7 43.443 276.91 42.223 A 2.445 2.445 0 0 0 275.5 41.8 Q 271.6 41.8 266.4 47.35 Q 261.2 52.9 257.6 59.9 Q 254.575 65.783 254.092 69.617 A 11.086 11.086 0 0 0 254 71 A 3.231 3.231 0 0 0 255.072 73.478 A 4.178 4.178 0 0 0 255.4 73.75 A 5.251 5.251 0 0 0 258.291 74.788 A 6.594 6.594 0 0 0 258.7 74.8 A 8.689 8.689 0 0 0 262.233 73.98 Q 264.943 72.775 267.987 69.8 A 39.178 39.178 0 0 0 269.3 68.45 A 34.162 34.162 0 0 0 276.869 55.232 A 40.879 40.879 0 0 0 277.5 53 Q 277.8 51.5 279.2 51.2 Z M 410.7 51.2 L 410.7 51.1 A 35.718 35.718 0 0 0 410.591 48.178 Q 410.2 43.443 408.41 42.223 A 2.445 2.445 0 0 0 407 41.8 Q 403.1 41.8 397.9 47.35 Q 392.7 52.9 389.1 59.9 Q 386.075 65.783 385.592 69.617 A 11.086 11.086 0 0 0 385.5 71 A 3.231 3.231 0 0 0 386.572 73.478 A 4.178 4.178 0 0 0 386.9 73.75 A 5.251 5.251 0 0 0 389.791 74.788 A 6.594 6.594 0 0 0 390.2 74.8 A 8.689 8.689 0 0 0 393.733 73.98 Q 396.443 72.775 399.487 69.8 A 39.178 39.178 0 0 0 400.8 68.45 A 34.162 34.162 0 0 0 408.369 55.232 A 40.879 40.879 0 0 0 409 53 Q 409.3 51.5 410.7 51.2 Z M 47.5 28.4 A 5.314 5.314 0 0 0 45.455 24.129 A 8.428 8.428 0 0 0 44.15 23.25 A 14.351 14.351 0 0 0 39.938 21.755 Q 38.128 21.4 36.05 21.4 Q 32.506 21.4 27.821 22.068 A 101.901 101.901 0 0 0 24.5 22.6 A 14.29 14.29 0 0 1 25.916 24.36 Q 26.585 25.354 26.931 26.32 A 5.999 5.999 0 0 1 27.3 28.35 A 11.193 11.193 0 0 1 27.177 29.77 Q 26.739 32.992 24.737 41.148 A 499.72 499.72 0 0 1 23.8 44.9 A 21.781 21.781 0 0 1 25.364 44.021 Q 27.102 43.126 29.659 42.095 A 96.53 96.53 0 0 1 31.3 41.45 A 141.44 141.44 0 0 0 34.278 40.276 Q 37.12 39.114 39.076 38.138 A 39.902 39.902 0 0 0 39.35 38 Q 41.907 36.7 43.262 35.663 A 9.566 9.566 0 0 0 43.65 35.35 A 11.709 11.709 0 0 0 44.894 34.107 Q 45.586 33.31 46.25 32.3 A 7.921 7.921 0 0 0 47.168 30.436 A 6.445 6.445 0 0 0 47.5 28.4 Z M 486.25 0 A 1.171 1.171 0 0 0 485.663 0.141 Q 485 0.517 485 1.9 Q 485 5.9 484.551 10.721 A 147.562 147.562 0 0 1 483.85 16.8 A 1448.697 1448.697 0 0 0 483.724 17.733 Q 482.836 24.332 482.718 25.704 A 4.007 4.007 0 0 0 482.7 26 A 0.886 0.886 0 0 0 482.705 26.088 Q 482.757 26.618 483.433 27.46 A 10.349 10.349 0 0 0 483.9 28 A 7.867 7.867 0 0 0 484.104 28.213 Q 484.742 28.855 485.322 29.118 A 1.88 1.88 0 0 0 486.1 29.3 Q 487.717 29.726 489.406 22.223 A 91.155 91.155 0 0 0 490 19.35 A 209.806 209.806 0 0 0 490.863 14.561 Q 492 7.768 492 4.3 A 1.026 1.026 0 0 0 491.968 4.051 Q 491.785 3.321 490.571 2.294 A 15.033 15.033 0 0 0 489.75 1.65 A 17.007 17.007 0 0 0 488.825 1.015 Q 487.23 0 486.25 0 Z M 91 41.4 A 8.192 8.192 0 0 0 87.615 42.177 Q 86.378 42.735 85.109 43.695 A 20.095 20.095 0 0 0 83.3 45.25 A 31.55 31.55 0 0 0 78.467 51.259 A 39.154 39.154 0 0 0 76.5 54.8 Q 80.375 55.672 85.282 55.7 A 57.225 57.225 0 0 0 85.6 55.7 A 26.639 26.639 0 0 0 89.955 55.362 A 19.288 19.288 0 0 0 94.5 54.05 A 10.647 10.647 0 0 0 96.073 53.219 Q 96.856 52.709 97.364 52.122 A 3.607 3.607 0 0 0 98.3 49.7 Q 98.3 47.422 96.556 45.073 A 14.006 14.006 0 0 0 95.85 44.2 A 12.081 12.081 0 0 0 94.514 42.879 Q 92.744 41.4 91 41.4 Z M 901.7 41.4 A 8.192 8.192 0 0 0 898.315 42.177 Q 897.078 42.735 895.809 43.695 A 20.095 20.095 0 0 0 894 45.25 A 31.55 31.55 0 0 0 889.167 51.259 A 39.154 39.154 0 0 0 887.2 54.8 Q 891.075 55.672 895.982 55.7 A 57.225 57.225 0 0 0 896.3 55.7 A 26.639 26.639 0 0 0 900.655 55.362 A 19.288 19.288 0 0 0 905.2 54.05 A 10.647 10.647 0 0 0 906.773 53.219 Q 907.556 52.709 908.064 52.122 A 3.607 3.607 0 0 0 909 49.7 Q 909 47.422 907.256 45.073 A 14.006 14.006 0 0 0 906.55 44.2 A 12.081 12.081 0 0 0 905.214 42.879 Q 903.444 41.4 901.7 41.4 Z M 928.203 71.433 A 8.66 8.66 0 0 0 927.3 72.4 A 10.641 10.641 0 0 0 926.975 72.823 Q 926.424 73.578 926.094 74.326 A 5.476 5.476 0 0 0 925.6 76.55 Q 925.6 78.6 928.7 81.75 A 20.27 20.27 0 0 0 929.229 82.269 Q 930.884 83.832 932.362 84.467 A 4.908 4.908 0 0 0 934.3 84.9 A 2.015 2.015 0 0 0 934.966 84.782 Q 935.285 84.671 935.615 84.455 A 4.802 4.802 0 0 0 936.2 84 Q 936.856 83.41 937.082 82.905 A 1.237 1.237 0 0 0 937.2 82.4 A 6.826 6.826 0 0 0 937.07 81.149 Q 936.641 78.87 934.8 75.15 A 32.538 32.538 0 0 0 934.209 74.01 Q 932.819 71.46 931.682 70.663 A 1.73 1.73 0 0 0 930.7 70.3 A 3.102 3.102 0 0 0 929.218 70.7 Q 928.71 70.973 928.203 71.433 Z M 655.539 16.674 A 5.143 5.143 0 0 0 654.8 19.3 A 3.329 3.329 0 0 0 654.972 20.317 Q 655.345 21.48 656.529 22.89 A 18.874 18.874 0 0 0 657.75 24.2 A 19.253 19.253 0 0 0 658.115 24.55 Q 659.756 26.081 661.223 26.693 A 4.869 4.869 0 0 0 663.1 27.1 A 2.538 2.538 0 0 0 664.296 26.796 A 3.559 3.559 0 0 0 665 26.3 A 3.238 3.238 0 0 0 665.436 25.834 A 2.168 2.168 0 0 0 665.9 24.5 A 6.797 6.797 0 0 0 665.881 23.998 Q 665.691 21.432 663.6 17.75 Q 661.956 14.855 660.644 14.03 A 1.879 1.879 0 0 0 659.65 13.7 A 3.192 3.192 0 0 0 658.429 13.95 Q 657.405 14.37 656.4 15.5 A 7.343 7.343 0 0 0 655.539 16.674 Z" vector-effect="non-scaling-stroke"/></g></svg>